/* XPM */
static char * ansifilter_logo_xpm[] = {
"48 48 105 2",
"  	c None",
". 	c #6E6E6E",
"+ 	c #FFFFFF",
"@ 	c #D4D4D4",
"# 	c #E44949",
"$ 	c #49E463",
"% 	c #4954E4",
"& 	c #D6D6D6",
"* 	c #939393",
"= 	c #616161",
"- 	c #373737",
"; 	c #191919",
"> 	c #0B0B0B",
", 	c #050505",
"' 	c #171717",
") 	c #2A2A2A",
"! 	c #525252",
"~ 	c #929292",
"{ 	c #DADADA",
"] 	c #D1D1D1",
"^ 	c #757575",
"/ 	c #1D1D1D",
"( 	c #000000",
"_ 	c #020202",
": 	c #565656",
"< 	c #D8D8D8",
"[ 	c #0C0C0C",
"} 	c #B3B3B3",
"| 	c #B6B6B6",
"1 	c #505050",
"2 	c #909090",
"3 	c #BCBCBC",
"4 	c #E1E1E1",
"5 	c #F0F0F0",
"6 	c #FBFBFB",
"7 	c #EEEEEE",
"8 	c #D2D2D2",
"9 	c #999999",
"0 	c #3A3A3A",
"a 	c #E9E9E9",
"b 	c #A6A6A6",
"c 	c #F8F8F8",
"d 	c #A9A9A9",
"e 	c #707070",
"f 	c #BABABA",
"g 	c #010101",
"h 	c #101010",
"i 	c #F6F6F6",
"j 	c #5A5A5A",
"k 	c #ADADAD",
"l 	c #777777",
"m 	c #424242",
"n 	c #FCFCFC",
"o 	c #252525",
"p 	c #B9B9B9",
"q 	c #7A7A7A",
"r 	c #4D4D4D",
"s 	c #262626",
"t 	c #090909",
"u 	c #151515",
"v 	c #F7F7F7",
"w 	c #818181",
"x 	c #060606",
"y 	c #212121",
"z 	c #D7D7D7",
"A 	c #FEFEFE",
"B 	c #3B3B3B",
"C 	c #CDCDCD",
"D 	c #E8E8E8",
"E 	c #F3F3F3",
"F 	c #B4B4B4",
"G 	c #787878",
"H 	c #FAFAFA",
"I 	c #F5F5F5",
"J 	c #626262",
"K 	c #E4E4E4",
"L 	c #292929",
"M 	c #C3C3C3",
"N 	c #111111",
"O 	c #7F7F7F",
"P 	c #FDFDFD",
"Q 	c #202020",
"R 	c #161616",
"S 	c #9C9C9C",
"T 	c #0E0E0E",
"U 	c #030303",
"V 	c #C6C6C6",
"W 	c #E2E2E2",
"X 	c #5E5E5E",
"Y 	c #BFBFBF",
"Z 	c #EFEFEF",
"` 	c #E5E5E5",
" .	c #595959",
"..	c #545454",
"+.	c #797979",
"@.	c #EBEBEB",
"#.	c #7E7E7E",
"$.	c #080808",
"%.	c #5B5B5B",
"&.	c #E6E6E6",
"*.	c #848484",
"=.	c #414141",
"-.	c #070707",
";.	c #404040",
">.	c #D9D9D9",
". . . . . . . . . . . . . . . . . . . . . . . . . . . . . . . . . . . . . . . . . . . . . . . . ",
". + + + + + + + + + + + + + + + + + + + + + + + + + + + + + + + + + + + + + + + + + + + + + + . ",
". + + + + + + + + + + + + + + + + + + + + + + + + + + + + + + + + + + + + + + + + + + + + + + . ",
". + + + + + + + + + + + + + + + + + + + + + + + + + + + + + + + + + + + + + + + + + + + + + + . ",
". + + + + + + + + + + + + + + + + + + + + + + + + + + + + + + + + + + + + + + + + + + + + + + . ",
". + + + + @ @ @ # # # # # # # # # @ @ @ @ @ @ $ $ $ $ $ $ $ $ $ @ @ @ @ @ @ % % % % % % + + + . ",
". + + + + @ @ @ # # # # # # # # # @ @ @ @ @ @ $ $ $ $ $ $ $ $ $ @ @ @ @ @ @ % % % % % % + + + . ",
". + + + + @ @ @ # # # # # # # # # @ @ @ @ @ @ $ $ $ $ $ $ $ $ $ @ @ @ @ @ @ % % % % % % + + + . ",
". + + + + + + + + + + + + + + + + + + + + + + + + + + + + + + + + + + + + + + + + + + + + + + . ",
". + + + + + + + + + + + + + + + + + + + + + + + + + + + + + + + + + + + + + + + + + + + + + + . ",
". + + + + @ @ @ @ @ @ @ @ @ % % % % % % % % % % % @ @ @ @ @ @ # # # # # # # @ @ @ @ @ @ + + + . ",
". + + + + @ @ @ @ @ @ @ @ @ % % % % % % % % % % % @ @ @ @ @ @ # # # # # # # @ @ @ @ @ @ + + + . ",
". + + + + @ @ @ @ @ @ @ @ @ % % % % % % % % % % % @ @ @ @ @ @ # # # # # # # @ @ @ @ @ @ + + + . ",
". + + + + + + + + + + + + + + + + + + + + + + + + + + + + + + + + + + + + + + + + + + + + + + . ",
". + + + + + + + + + + + + + + + + + + + + + + + + + + + + + + + + + + + + + + + + + + + + + + . ",
". + + + + + + + & * = - ; > , ' ) ! ~ { + + + + + + @ @ @ @ @ @ @ @ @ $ $ $ $ $ $ $ $ $ + + + . ",
". + + + + ] ^ / ( ( ( ( ( ( ( ( ( ( ( _ : < + + + + @ @ @ @ @ @ @ @ @ $ $ $ $ $ $ $ $ $ + + + . ",
". + + + + ( ( ( ( ( ( ( ( ( ( ( ( ( ( ( ( [ } + + + @ @ @ @ @ @ @ @ @ $ $ $ $ $ $ $ $ $ + + + . ",
". + + + + ( ( ( ( ( ( ( ( ( ( ( ( ( ( ( ( ( _ | + + + + + + + + + + + + + + + + + + + + + + + . ",
". + + + + ( ( [ 1 2 3 4 5 6 7 8 9 0 ( ( ( ( ( ' a + + + + + + + + + + + + + + + + + + + + + + . ",
". + + + + - b c + + + + + + + + + + d [ ( ( ( ( e + + + + # # # # # # # # @ @ @ @ @ @ @ + + + . ",
". + + + + + + + + + + + + + + + + + + f g ( ( ( h i + + + # # # # # # # # @ @ @ @ @ @ @ + + + . ",
". + + + + + + + + + + + + + + + + + + + j ( ( ( ( k + + + # # # # # # # # @ @ @ @ @ @ @ + + + . ",
". + + + + + + + + + + + + + + + + + + + | ( ( ( ( l + + + + + + + + + + + + + + + + + + + + + . ",
". + + + + + + + + + + + + + + + + + + + a ( ( ( ( m + + + + + + + + + + + + + + + + + + + + + . ",
". + + + + + + + + + + + + + + + + + + + n ( ( ( ( o + + + @ @ @ @ % % % % % % % % @ @ @ + + + . ",
". + + + + + + + n p q r s ' t ( ( ( ( ( ( ( ( ( ( u + + + @ @ @ @ % % % % % % % % @ @ @ + + + . ",
". + + + + + v w ' ( ( ( ( ( ( ( ( ( ( ( ( ( ( ( ( x + + + @ @ @ @ % % % % % % % % @ @ @ + + + . ",
". + + + + @ y ( ( ( ( ( ( ( ( ( ( ( ( ( ( ( ( ( ( ( + + + + + + + + + + + + + + + + + + + + + . ",
". + + + z u ( ( ( ( ( ( ( ( ( ( ( ( ( ( ( ( ( ( ( ( + + + + + + + + + + + + + + + + + + + + + . ",
". + + A B ( ( ( ( ( ; . d C D E n + + + + ( ( ( ( ( + + + $ $ $ $ $ @ @ @ @ @ @ @ @ @ @ + + + . ",
". + + F ( ( ( ( ( G H + + + + + + + + + I ( ( ( ( ( + + + $ $ $ $ $ @ @ @ @ @ @ @ @ @ @ + + + . ",
". + + J ( ( ( ( : + + + + + + + + + + + K ( ( ( ( ( + + + $ $ $ $ $ @ @ @ @ @ @ @ @ @ @ + + + . ",
". + + L ( ( ( ( M + + + + + + + + + + + f ( ( ( ( ( + + + + + + + + + + + + + + + + + + + + + . ",
". + + N ( ( ( ( 5 + + + + + + + + + + + O ( ( ( ( ( + + + + + + + + + + + + + + + + + + + + + . ",
". + + , ( ( ( ( c + + + + + + + + + + P Q ( ( ( ( ( + + + @ @ @ @ @ @ @ @ # # # # # @ @ + + + . ",
". + + R ( ( ( ( ] + + + + + + + + + + S ( ( ( ( ( ( + + + @ @ @ @ @ @ @ @ # # # # # @ @ + + + . ",
". + + B ( ( ( ( e + + + + + + + + + < T ( ( ( ( ( ( + + + @ @ @ @ @ @ @ @ # # # # # @ @ + + + . ",
". + + O ( ( ( ( U k + + + + + + + V ' ( ( ( ( ( ( ( + + + + + + + + + + + + + + + + + + + + + . ",
". + + W x ( ( ( ( g X Y Z H ` }  .g ( ( ..( ( ( ( ( + + + + + + + + + + + + + + + + + + + + + . ",
". + + + +.( ( ( ( ( ( ( ( ( ( ( ( ( ( y @.( ( ( ( ( + + + % % % % % % % % % @ @ @ @ @ @ + + + . ",
". + + + P 1 ( ( ( ( ( ( ( ( ( ( ( ( y { + ( ( ( ( ( + + + % % % % % % % % % @ @ @ @ @ @ + + + . ",
". + + + + P #.$.( ( ( ( ( ( ( ( g %.@.+ + ( ( ( ( ( + + + % % % % % % % % % @ @ @ @ @ @ + + + . ",
". + + + + + + &.*.=.; x -.; ;.O >.+ + + + + + + + + + + + + + + + + + + + + + + + + + + + + + . ",
". + + + + + + + + + + + + + + + + + + + + + + + + + + + + + + + + + + + + + + + + + + + + + + . ",
". + + + + + + + + + + + + + + + + + + + + + + + + + + + + + + + + + + + + + + + + + + + + + + . ",
". + + + + + + + + + + + + + + + + + + + + + + + + + + + + + + + + + + + + + + + + + + + + + + . ",
". . . . . . . . . . . . . . . . . . . . . . . . . . . . . . . . . . . . . . . . . . . . . . . . "};
