/* XPM */
static char * ansifilter_logo_xpm[] = {
"48 48 236 2",
"  	c #FFFFFF",
". 	c #FEFEFE",
"+ 	c #FCFCFC",
"@ 	c #FBFBFB",
"# 	c #F9F9F9",
"$ 	c #F8F8F8",
"% 	c #FDFDFD",
"& 	c #FAFAFA",
"* 	c #CBCBCB",
"= 	c #B5B5B5",
"- 	c #B2B2B2",
"; 	c #B0B0B0",
"> 	c #AFAFAF",
", 	c #E5E5E5",
"' 	c #F0F0F0",
") 	c #F7F7F7",
"! 	c #F8F2F2",
"~ 	c #F8A2A2",
"{ 	c #F4A0A0",
"] 	c #F19D9D",
"^ 	c #F09C9C",
"/ 	c #F09B9B",
"( 	c #EFB1B1",
"_ 	c #F2F2F2",
": 	c #F3F3F3",
"< 	c #A5F9A5",
"[ 	c #A1F5A1",
"} 	c #9EF29E",
"| 	c #9CF09C",
"1 	c #9BF09B",
"2 	c #99F199",
"3 	c #F1F1F1",
"4 	c #CACACA",
"5 	c #3D3D3D",
"6 	c #6D6D6D",
"7 	c #E1E1E1",
"8 	c #ECECEC",
"9 	c #FA5858",
"0 	c #FF0000",
"a 	c #DF9D9D",
"b 	c #E2E2E2",
"c 	c #EFEFEF",
"d 	c #B9F5B9",
"e 	c #00FE00",
"f 	c #00FF00",
"g 	c #25F725",
"h 	c #DFDFDF",
"i 	c #EDEDED",
"j 	c #ADADAD",
"k 	c #5A5A5A",
"l 	c #C9C9C9",
"m 	c #DDDDDD",
"n 	c #F4F4F4",
"o 	c #F84141",
"p 	c #FE0000",
"q 	c #D36D6D",
"r 	c #CCCCCC",
"s 	c #E3E3E3",
"t 	c #A9EDA9",
"u 	c #0CFA0C",
"v 	c #C6C6C6",
"w 	c #AAAAAA",
"x 	c #535353",
"y 	c #B3B3B3",
"z 	c #D1D1D1",
"A 	c #F43F3F",
"B 	c #C45F5F",
"C 	c #BBBBBB",
"D 	c #D9D9D9",
"E 	c #A3E7A3",
"F 	c #00FD00",
"G 	c #0BF80B",
"H 	c #B1B1B1",
"I 	c #D4D4D4",
"J 	c #EEEEEE",
"K 	c #A8A8A8",
"L 	c #515151",
"M 	c #E9E9E9",
"N 	c #F43E3E",
"O 	c #BC5757",
"P 	c #A0E3A0",
"Q 	c #0AF70A",
"R 	c #A7A7A7",
"S 	c #CECECE",
"T 	c #505050",
"U 	c #A5A5A5",
"V 	c #C8C8C8",
"W 	c #E8E8E8",
"X 	c #F33E3E",
"Y 	c #BB5555",
"Z 	c #D2D2D2",
"` 	c #9EE19E",
" .	c #00FC00",
"..	c #09F709",
"+.	c #A4A4A4",
"@.	c #EBEBEB",
"#.	c #4F4F4F",
"$.	c #E7E7E7",
"%.	c #F33D3D",
"&.	c #BA5454",
"*.	c #A3A3A3",
"=.	c #BA5555",
"-.	c #F43C3C",
";.	c #BE5555",
">.	c #D3D3D3",
",.	c #9EE39E",
"'.	c #08F908",
").	c #A6A6A6",
"!.	c #3E3E3E",
"~.	c #424242",
"{.	c #414141",
"].	c #666666",
"^.	c #D0D0D0",
"/.	c #EE7171",
"(.	c #FB0808",
"_.	c #FB0707",
":.	c #FA0606",
"<.	c #F90606",
"[.	c #FD0202",
"}.	c #A78484",
"|.	c #BABABA",
"1.	c #B9E4B9",
"2.	c #08FB08",
"3.	c #07FA07",
"4.	c #06FA06",
"5.	c #06F906",
"6.	c #04FB04",
"7.	c #3AD53A",
"8.	c #9E9E9E",
"9.	c #959595",
"0.	c #939393",
"a.	c #929292",
"b.	c #969696",
"c.	c #C1C1C1",
"d.	c #DCDCDC",
"e.	c #E4E3E3",
"f.	c #CEBEBE",
"g.	c #B5A6A6",
"h.	c #A49595",
"i.	c #9E8F8F",
"j.	c #9D8D8D",
"k.	c #A29797",
"l.	c #C7D7C7",
"m.	c #AEBEAE",
"n.	c #99A999",
"o.	c #91A191",
"p.	c #8E9E8E",
"q.	c #8D9D8D",
"r.	c #8F9E8F",
"s.	c #92A292",
"t.	c #DEDEDE",
"u.	c #F5F5F5",
"v.	c #D5D5D5",
"w.	c #BFBFBF",
"x.	c #C2C2C2",
"y.	c #DADADA",
"z.	c #EAEAEA",
"A.	c #C3C3C3",
"B.	c #BEBEBE",
"C.	c #BCBCBC",
"D.	c #E4E4E4",
"E.	c #BDBDBD",
"F.	c #F6F6F6",
"G.	c #E6E6E6",
"H.	c #DBDBDB",
"I.	c #4E4E4E",
"J.	c #4D4D4D",
"K.	c #4C4C4C",
"L.	c #585858",
"M.	c #5050F8",
"N.	c #1717F9",
"O.	c #1818F7",
"P.	c #1717F6",
"Q.	c #1717F4",
"R.	c #1515F6",
"S.	c #5858EE",
"T.	c #6B6B6B",
"U.	c #3C3C3C",
"V.	c #8B8B8B",
"W.	c #D2D2F2",
"X.	c #0000FD",
"Y.	c #0000FE",
"Z.	c #0202FC",
"`.	c #BEBECF",
" +	c #7F7F7F",
".+	c #C5C5C5",
"++	c #E0E0E0",
"@+	c #CDCDEB",
"#+	c #0000FF",
"$+	c #0505FC",
"%+	c #A7A7B7",
"&+	c #6C6C6C",
"*+	c #737373",
"=+	c #B7B7B7",
"-+	c #C8C8E6",
";+	c #9696A6",
">+	c #6F6F6F",
",+	c #D6D6D6",
"'+	c #C6C6E4",
")+	c #0000FC",
"!+	c #0404FB",
"~+	c #8F8F9F",
"{+	c #6E6E6E",
"]+	c #C5C5E3",
"^+	c #8D8D9D",
"/+	c #C0C0C0",
"(+	c #8E8E9E",
"_+	c #B4B4B4",
":+	c #D8D8D8",
"<+	c #C5C5E5",
"[+	c #0101FE",
"}+	c #9292A4",
"|+	c #C4C4C4",
"1+	c #5F5F5F",
"2+	c #595959",
"3+	c #525252",
"4+	c #A9A9A9",
"5+	c #6262ED",
"6+	c #2E2EEE",
"7+	c #2929E7",
"8+	c #2525E3",
"9+	c #2424E2",
"0+	c #2323E2",
"a+	c #2323E3",
"b+	c #4C4CCA",
"c+	c #CDCDCD",
"d+	c #CFCFCF",
"e+	c #404040",
"f+	c #D7D7D7",
"g+	c #3F3F3F",
"h+	c #949494",
"i+	c #919191",
"j+	c #545454",
"k+	c #A1A1A1",
"l+	c #A2A2A2",
"m+	c #ACACAC",
"      . . . . . . . . . . . .       . . . . . . . . . . . .     . . . . . . . . . . . . .       ",
"    . + @ # $ $ $ $ $ $ $ # @ % % % + & $ $ $ $ $ $ $ $ & + % % + & $ $ $ $ $ $ $ $ # @ + .     ",
"  .   * = - ; > > > > > > , ' ) & ! ~ { ] ^ / / / / ^ ( _ : $   < [ } | 1 1 1 1 1 2 # 3 $ + .   ",
"  % 4 5 5 5 5 5 5 5 5 5 5 6 7 8 & 9 0 0 0 0 0 0 0 0 0 0 a b c d e f f f f f f f f f g h i $ .   ",
". @ j 5 5 5 5 5 5 5 5 5 5 k l m n o p 0 0 0 0 0 0 0 0 0 q r s t e f f f f f f f f f u v h : +   ",
". # w 5 5 5 5 5 5 5 5 5 5 x y z i A p 0 0 0 0 0 0 0 0 0 B C D E F f f f f f f f f f G H I J @ . ",
". $ K 5 5 5 5 5 5 5 5 5 5 L K * M N p 0 0 0 0 0 0 0 0 0 O y I P F f f f f f f f f f Q R S 8 & . ",
". $ R 5 5 5 5 5 5 5 5 5 5 T U V W X p 0 0 0 0 0 0 0 0 0 Y ; Z `  .f f f f f f f f f ..+.* @.& . ",
". $ R 5 5 5 5 5 5 5 5 5 5 #.U V $.%.p 0 0 0 0 0 0 0 0 0 &.> z `  .f f f f f f f f f ..*.* @.& . ",
". $ R 5 5 5 5 5 5 5 5 5 5 #.U V $.%.p 0 0 0 0 0 0 0 0 0 &.> z `  .f f f f f f f f f ..*.* @.& . ",
". $ R 5 5 5 5 5 5 5 5 5 5 #.U V $.%.p 0 0 0 0 0 0 0 0 0 &.> z `  .f f f f f f f f f ..*.* @.& . ",
". $ R 5 5 5 5 5 5 5 5 5 5 T U V W X p 0 0 0 0 0 0 0 0 0 =.; Z `  .f f f f f f f f f ..+.* @.& . ",
". $ U 5 5 5 5 5 5 5 5 5 5 T K 4 M -.p 0 0 0 0 0 0 0 0 0 ;.- >.,.F f f f f f f f f f '.).S 8 & . ",
". # >.!.~.{.{.{.{.{.{.{.{.].> ^.$./.(._.:.:.<.<.<.<.:.[.}.|.D 1.2.2.3.4.4.5.5.5.4.6.7.> I J @ . ",
". @ c ^.y 8.9.0.a.a.a.0.b.R c.d.@.e.f.g.h.i.j.j.j.j.i.k.; 4 b $.l.m.n.o.p.q.q.q.r.s.w c.t.: +   ",
". + u.W v.V c.w.w.w.w.w.x.4 y.z.: J h S A.B.C.C.C.C.B.A.S h i ' D.>.v w.B.C.C.C.E.c.l D @.) .   ",
"  . @ u.i W D.s s s s s , M c F.# F.' G.t.H.y.y.y.y.H.t.s 8 n ) : M 7 d.y.y.y.y.y.m 7 W : & %   ",
"    . + & $ ) ) ) ) ) ) ) # @ + & S I.J.J.K.K.K.K.K.K.L.8 z.: . M.N.O.P.Q.Q.Q.Q.Q.R.S.G.c $ %   ",
"      . . . % % % % % % % . . %   T.U.U.U.U.U.U.U.U.U.U.V.D @.W.X.Y.Y.X.X.X.X.X.X.X.Z.`.b : @ . ",
"                              % . 6 5 5 5 5 5 5 5 5 5 !. +.+++@+Y.#+#+#+#+#+#+#+#+#+$+%+z 8 # . ",
"                              + + &+5 5 5 5 5 5 5 5 5 !.*+=+D -+X.#+#+#+#+#+#+#+#+#+$+;+v $.$ . ",
"                              + & T.5 5 5 5 5 5 5 5 5 !.>+H ,+'+)+#+#+#+#+#+#+#+#+#+!+~+c.D.$ . ",
"                              + @ T.5 5 5 5 5 5 5 5 5 !.{+; I ]+)+#+#+#+#+#+#+#+#+#+!+^+/+D.$ . ",
"                              + @ T.5 5 5 5 5 5 5 5 5 !.6 > I ]+)+#+#+#+#+#+#+#+#+#+!+^+w.D.$ . ",
"                              + @ T.5 5 5 5 5 5 5 5 5 !.6 > I ]+)+#+#+#+#+#+#+#+#+#+!+^+w.D.$ . ",
"                              + @ T.5 5 5 5 5 5 5 5 5 !.6 > I ]+)+#+#+#+#+#+#+#+#+#+!+^+w.D.$ . ",
"                              + @ T.5 5 5 5 5 5 5 5 5 !.{+; v.]+)+#+#+#+#+#+#+#+#+#+!+(+/+D.$ . ",
"                              + + ].5 5 5 5 5 5 5 5 5 !.{+_+:+<+Y.#+#+#+#+#+#+#+#+#+[+}+|+G.$ % ",
"                              % n V 1+2+x 3+L L L L 3+2+4+/+t.i 5+6+7+8+9+0+0+0+9+a+b+j c+z.# . ",
"                              % # @.>.C.j R U U U U R j C.>.W J 7 l _+4+).+.+.+.U R ; A.d.' @ . ",
"                              . @ u.M H.>.d+S S S S d+>.H.M : F.i ++Z * V V V V V 4 ^.d.z.F.%   ",
"                                . @ ) _ c i i i i i i c _ ) & + * _+j w K K K K K K C D.J $ %   ",
"                                . . % + @ & & & & & & @ + % + ++U.U.U.U.U.U.U.U.U.U.{.4 , u.+ . ",
"                                      . . . . . . . . . . . + m 5 5 5 5 5 5 5 5 5 5 e+- ,+J & . ",
"                                                          . @ y.5 5 5 5 5 5 5 5 5 5 e+8.l W $ . ",
"                                                          . & f+5 5 5 5 5 5 5 5 5 5 g+h+x., $ . ",
"                                                          . & f+5 5 5 5 5 5 5 5 5 5 g+a./+D.$ . ",
"                                                          . & f+5 5 5 5 5 5 5 5 5 5 g+i+w.D.$ . ",
"                                                          . & f+5 5 5 5 5 5 5 5 5 5 g+i+w.D.$ . ",
"                                                          . & f+5 5 5 5 5 5 5 5 5 5 g+i+w.D.$ . ",
"                                                          . & f+5 5 5 5 5 5 5 5 5 5 g+a./+D.$ . ",
"                                                          . & f+5 5 5 5 5 5 5 5 5 5 g+9.x., $ . ",
"                                                          . @ J j+!.!.g+g+g+g+g+g+g+I.U 4 M $ . ",
"                                                          . + : M S = R *.k+k+k+l+U m+C f+c & . ",
"                                                            % $ i d.S v x.x.x.x.x..+* f+M F.+ . ",
"                                                            . + ) ' z.$., , , , , G.M J F.@ .   ",
"                                                              . % @ # $ ) ) ) ) ) $ # @ % . .   ",
"                                                                . . . % % % % % % % . . .       "};
